<?xml version="1.0" encoding="utf-8"?>
<!-- Generator: Adobe Illustrator 16.0.0, SVG Export Plug-In . SVG Version: 6.00 Build 0)  -->
<!DOCTYPE svg PUBLIC "-//W3C//DTD SVG 1.1//EN" "http://www.w3.org/Graphics/SVG/1.1/DTD/svg11.dtd" [
	<!ENTITY ns_extend "http://ns.adobe.com/Extensibility/1.0/">
	<!ENTITY ns_ai "http://ns.adobe.com/AdobeIllustrator/10.0/">
	<!ENTITY ns_graphs "http://ns.adobe.com/Graphs/1.0/">
	<!ENTITY ns_vars "http://ns.adobe.com/Variables/1.0/">
	<!ENTITY ns_imrep "http://ns.adobe.com/ImageReplacement/1.0/">
	<!ENTITY ns_sfw "http://ns.adobe.com/SaveForWeb/1.0/">
	<!ENTITY ns_custom "http://ns.adobe.com/GenericCustomNamespace/1.0/">
	<!ENTITY ns_adobe_xpath "http://ns.adobe.com/XPath/1.0/">
]>
<svg version="1.1" id="Capa_1" xmlns:x="&ns_extend;" xmlns:i="&ns_ai;" xmlns:graph="&ns_graphs;"
	 xmlns="http://www.w3.org/2000/svg" xmlns:xlink="http://www.w3.org/1999/xlink" x="0px" y="0px" width="400px" height="400px"
	 viewBox="0 0 400 400" style="enable-background:new 0 0 400 400;" xml:space="preserve">
<metadata>
	<sfw  xmlns="&ns_sfw;">
		<slices></slices>
		<sliceSourceBounds  height="169.464" width="228.438" y="-286.089" x="123.187" bottomLeftOrigin="true"></sliceSourceBounds>
	</sfw>
</metadata>
<polygon style="fill:#444444;stroke:#444444;stroke-miterlimit:10;" points="206.167,204.667 206.167,239 252.999,239 
	252.999,228.418 222.998,228.418 223.081,225.334 239.916,225.334 239.915,218.751 222.831,218.751 222.748,215.501 
	249.248,215.584 249.248,204.667 "/>
<path style="fill:#444444;stroke:#444444;stroke-miterlimit:10;" d="M204.979,274.667c0,0,16.146,10.333,27.021,10.833
	c13.338,0.613,35.25-1,35.875-35.625c0.188-10.376-1.375-23.375-1.375-23.375l7.834,12.5l10.333-13.667V239h17v-34.333H285
	l-10.333,13l-9.667-13h-6c-20.25-47.292-74-87.542-95.625-87.542c-56.625,0-36.041,57.542-36.041,57.542S128,114,188.052,139.306
	c16.369,6.898,37.139,20.922,58.616,59.694c7.449,13.447,12.002,48.012,4.333,61.333
	C237.502,283.783,204.979,274.667,204.979,274.667z"/>
<path style="fill:#444444;stroke:#444444;stroke-miterlimit:10;" d="M303.25,204.625c0,0,0.013,18.494,0,24
	c-0.009,3.875,5.875,10.929,19,10.895c12.5-0.032,8.142,0.18,11.25-0.145c6-0.625,17.625-3,17.625-10.5c0-11.75,0-24.25,0-24.25
	H334.75c0,0,0.125,17.395,0.125,22.625c0,4.625-15.25,5.125-15.5,0c-0.292-5.994,0-22.625,0-22.625H303.25z"/>
</svg>
